<svg width="2616" height="374" viewBox="0 0 2616 374" fill="none" xmlns="http://www.w3.org/2000/svg">
<path d="M572.849 366.871C560.359 366.871 548.965 365.357 538.666 362.329C528.367 359.084 518.945 354.109 510.399 347.404C501.853 340.483 495.17 331.074 490.349 319.177C485.529 307.065 483.118 292.789 483.118 276.35V135.865H522.56V276.35C522.56 296.033 526.833 309.876 535.379 317.88C544.144 325.666 556.634 329.56 572.849 329.56C589.064 329.56 601.445 325.558 609.991 317.555C618.756 309.552 623.138 295.817 623.138 276.35V135.865H662.58V276.35C662.58 292.573 660.17 306.74 655.349 318.853C650.748 330.749 644.174 340.158 635.628 347.08C627.302 353.785 617.879 358.76 607.361 362.004C597.062 365.249 585.558 366.871 572.849 366.871Z" fill="#f9f9f9"/>
<path d="M817.409 362.978V267.915C817.409 242.175 807.001 229.305 786.184 229.305C763.395 229.305 752.001 241.959 752.001 267.266V362.978H713.545V197.185H752.001V212.759C762.957 199.781 777.748 193.292 796.373 193.292C813.903 193.292 828.146 198.699 839.103 209.514C850.278 220.329 855.865 237.525 855.865 261.101V362.978H817.409Z" fill="#f9f9f9"/>
<path d="M939.393 167.985C935.01 172.311 929.642 174.474 923.287 174.474C916.933 174.474 911.454 172.311 906.853 167.985C902.47 163.443 900.279 158.035 900.279 151.763C900.279 145.49 902.47 140.191 906.853 135.865C911.454 131.539 916.933 129.376 923.287 129.376C929.642 129.376 935.01 131.539 939.393 135.865C943.775 140.191 945.966 145.49 945.966 151.763C945.966 158.035 943.775 163.443 939.393 167.985ZM903.895 362.978V197.185H942.351V362.978H903.895Z" fill="#f9f9f9"/>
<path d="M1036.87 362.978L975.402 197.185H1014.52L1051.66 300.684C1054.29 309.336 1055.82 314.311 1056.26 315.608C1057.57 309.985 1059.11 305.01 1060.86 300.684L1097.34 197.185H1136.46L1074.99 362.978H1036.87Z" fill="#f9f9f9"/>
<path d="M1237.09 366.871C1213.2 366.871 1194.25 359.192 1180.22 343.835C1166.42 328.262 1159.52 306.956 1159.52 279.919C1159.52 253.098 1166.53 232.009 1180.55 216.652C1194.58 201.079 1213.42 193.292 1237.09 193.292C1258.56 193.292 1276.09 199.889 1289.68 213.083C1303.48 226.277 1310.38 245.636 1310.38 271.159C1310.38 280.027 1309.95 287.814 1309.07 294.519H1197.64C1198.3 306.199 1202.36 315.608 1209.81 322.746C1217.48 329.884 1226.57 333.453 1237.09 333.453C1251.99 333.453 1263.82 327.721 1272.58 316.257L1296.91 340.915C1282.23 358.219 1262.29 366.871 1237.09 366.871ZM1197.97 263.048H1272.26C1271.38 251.152 1267.65 242.175 1261.08 236.119C1254.51 229.846 1246.51 226.71 1237.09 226.71C1226.13 226.71 1217.04 229.738 1209.81 235.794C1202.79 241.634 1198.85 250.719 1197.97 263.048Z" fill="#f9f9f9"/>
<path d="M1349.73 362.978V197.185H1388.19V214.381C1394.98 200.322 1406.48 193.292 1422.7 193.292C1434.53 193.292 1444.94 197.077 1453.92 204.647L1448.34 239.363C1440.01 233.523 1430.48 230.603 1419.74 230.603C1410.98 230.603 1403.53 233.631 1397.39 239.688C1391.25 245.744 1388.19 255.91 1388.19 270.186V362.978H1349.73Z" fill="#f9f9f9"/>
<path d="M1536.84 366.871C1523.26 366.871 1510.44 364.275 1498.39 359.084C1486.55 353.893 1477.57 346.972 1471.43 338.32L1497.73 316.257C1509.56 327.937 1522.6 333.777 1536.84 333.777C1555.03 333.777 1564.12 328.37 1564.12 317.555C1564.12 313.878 1562.48 310.525 1559.19 307.497C1556.13 304.469 1552.73 302.198 1549 300.684C1545.5 298.953 1539.69 296.466 1531.58 293.222C1512.3 286.949 1498.17 279.811 1489.18 271.808C1480.42 263.589 1476.04 252.774 1476.04 239.363C1476.04 224.871 1481.62 213.624 1492.8 205.621C1504.19 197.401 1518.55 193.292 1535.86 193.292C1561.28 193.292 1581.32 201.836 1596.01 218.923L1569.38 240.337C1559.52 231.036 1548.35 226.385 1535.86 226.385C1520.74 226.385 1513.18 230.928 1513.18 240.012C1513.18 244.554 1515.92 248.448 1521.39 251.692C1527.09 254.937 1535.31 258.289 1546.05 261.75C1564.23 267.807 1577.93 274.944 1587.13 283.164C1596.55 291.383 1601.27 302.847 1601.27 317.555C1601.27 333.345 1595.46 345.566 1583.84 354.218C1572.23 362.653 1556.56 366.871 1536.84 366.871Z" fill="#f9f9f9"/>
<path d="M1737.15 362.978V349.675C1725.98 361.139 1711.08 366.871 1692.45 366.871C1674.48 366.871 1659.8 362.112 1648.41 352.595C1637.23 342.862 1631.64 329.235 1631.64 311.715C1631.64 293.762 1638 280.135 1650.71 270.835C1663.64 261.534 1679.19 256.883 1697.38 256.883C1713.38 256.883 1726.63 259.803 1737.15 265.644V256.883C1737.15 246.285 1734.41 238.606 1728.93 233.848C1723.67 229.089 1715.46 226.71 1704.28 226.71C1686.1 226.71 1669.44 231.901 1654.32 242.283L1642.49 211.461C1660.68 199.348 1682.59 193.292 1708.23 193.292C1716.99 193.292 1724.66 194.049 1731.23 195.563C1738.03 196.861 1744.93 199.564 1751.94 203.674C1759.17 207.784 1764.76 214.273 1768.7 223.141C1772.65 232.009 1774.62 243.04 1774.62 256.235V362.978H1737.15ZM1699.68 333.453C1714.36 333.453 1726.85 328.154 1737.15 317.555V296.142C1727.51 291.599 1716.33 289.328 1703.62 289.328C1693.33 289.328 1685 291.167 1678.64 294.844C1672.29 298.521 1669.11 304.145 1669.11 311.715C1669.11 318.42 1671.74 323.72 1677 327.613C1682.26 331.506 1689.82 333.453 1699.68 333.453Z" fill="#f9f9f9"/>
<path d="M1822.25 362.978V146.571L1860.71 128.727V362.978H1822.25Z" fill="#f9f9f9"/>
<path d="M1987.37 366.871C1971.59 366.871 1959.21 361.355 1950.23 350.324V362.978H1911.77V145.923L1950.23 128.727V209.514C1959.65 198.699 1972.25 193.292 1988.03 193.292C2008.84 193.292 2025.6 201.079 2038.31 216.652C2051.24 232.225 2057.71 253.315 2057.71 279.919C2057.71 307.605 2051.46 329.019 2038.97 344.16C2026.48 359.301 2009.28 366.871 1987.37 366.871ZM1982.77 330.533C1994.6 330.533 2003.58 326.099 2009.72 317.231C2016.07 308.146 2019.25 295.709 2019.25 279.919C2019.25 263.481 2016.07 250.935 2009.72 242.283C2003.36 233.631 1994.38 229.305 1982.77 229.305C1968.3 229.305 1957.46 234.713 1950.23 245.528V314.635C1957.24 325.234 1968.09 330.533 1982.77 330.533Z" fill="#f9f9f9"/>
<path d="M2194.55 362.978V349.675C2183.38 361.139 2168.47 366.871 2149.85 366.871C2131.88 366.871 2117.2 362.112 2105.81 352.595C2094.63 342.862 2089.04 329.235 2089.04 311.715C2089.04 293.762 2095.4 280.135 2108.11 270.835C2121.03 261.534 2136.59 256.883 2154.78 256.883C2170.78 256.883 2184.03 259.803 2194.55 265.644V256.883C2194.55 246.285 2191.81 238.606 2186.33 233.848C2181.07 229.089 2172.86 226.71 2161.68 226.71C2143.49 226.71 2126.84 231.901 2111.72 242.283L2099.89 211.461C2118.08 199.348 2139.99 193.292 2165.63 193.292C2174.39 193.292 2182.06 194.049 2188.63 195.563C2195.43 196.861 2202.33 199.564 2209.34 203.674C2216.57 207.784 2222.16 214.273 2226.1 223.141C2230.05 232.009 2232.02 243.04 2232.02 256.235V362.978H2194.55ZM2157.08 333.453C2171.76 333.453 2184.25 328.154 2194.55 317.555V296.142C2184.91 291.599 2173.73 289.328 2161.02 289.328C2150.73 289.328 2142.4 291.167 2136.04 294.844C2129.69 298.521 2126.51 304.145 2126.51 311.715C2126.51 318.42 2129.14 323.72 2134.4 327.613C2139.66 331.506 2147.22 333.453 2157.08 333.453Z" fill="#f9f9f9"/>
<path d="M2381.88 362.978V267.915C2381.88 242.175 2371.47 229.305 2350.65 229.305C2327.86 229.305 2316.47 241.959 2316.47 267.266V362.978H2278.01V197.185H2316.47V212.759C2327.42 199.781 2342.21 193.292 2360.84 193.292C2378.37 193.292 2392.61 198.699 2403.57 209.514C2414.74 220.329 2420.33 237.525 2420.33 261.101V362.978H2381.88Z" fill="#f9f9f9"/>
<path d="M2615.28 362.978H2573.21L2525.22 271.484L2506.49 289.653V362.978H2468.03V146.571L2506.49 128.727V245.203L2553.82 197.185H2600.49L2552.83 244.23L2615.28 362.978Z" fill="#f9f9f9"/>
<path fill-rule="evenodd" clip-rule="evenodd" d="M322.079 51.4906H51.5327V321.816H322.079V51.4906ZM0 0V373.307H373.612V0H0ZM135.273 131.558H176.757H241.946V155.245V196.695V238.144L283.43 196.695V90.1086H176.757L135.273 131.558ZM105.9 202.358H64.4159L105.9 160.908H212.572V267.494L171.089 308.944V267.494V226.045V202.358H105.9Z" fill="#E20001"/>
</svg>
